<mxfile host="app.diagrams.net" modified="2023-09-28T21:40:27.049Z" agent="Mozilla/5.0 (Windows NT 10.0; Win64; x64) AppleWebKit/537.36 (KHTML, like Gecko) Chrome/117.0.0.0 Safari/537.36 Edg/117.0.2045.43" etag="Pv5S51etOCMm6Hx-gkBC" version="22.0.0" type="device">
  <diagram name="Страница — 1" id="wH5gzBJayFShSJq4z4VL">
    <mxGraphModel dx="2853" dy="2280" grid="1" gridSize="10" guides="1" tooltips="1" connect="1" arrows="1" fold="1" page="1" pageScale="1" pageWidth="827" pageHeight="1169" math="0" shadow="0">
      <root>
        <mxCell id="0" />
        <mxCell id="1" parent="0" />
        <mxCell id="3rphy4vfXOON34eeTj1o-41" value="" style="rounded=0;whiteSpace=wrap;html=1;fillColor=none;dashed=1;" vertex="1" parent="1">
          <mxGeometry x="180" y="-320" width="550" height="210" as="geometry" />
        </mxCell>
        <mxCell id="3rphy4vfXOON34eeTj1o-64" style="edgeStyle=orthogonalEdgeStyle;rounded=0;orthogonalLoop=1;jettySize=auto;html=1;exitX=1;exitY=0.5;exitDx=0;exitDy=0;entryX=-0.012;entryY=0.5;entryDx=0;entryDy=0;entryPerimeter=0;" edge="1" parent="1" source="3rphy4vfXOON34eeTj1o-12" target="3rphy4vfXOON34eeTj1o-65">
          <mxGeometry relative="1" as="geometry">
            <mxPoint x="760" y="870" as="targetPoint" />
          </mxGeometry>
        </mxCell>
        <mxCell id="3rphy4vfXOON34eeTj1o-12" value="" style="rounded=0;whiteSpace=wrap;html=1;fillColor=none;dashed=1;" vertex="1" parent="1">
          <mxGeometry x="180" y="630" width="500" height="450" as="geometry" />
        </mxCell>
        <mxCell id="3rphy4vfXOON34eeTj1o-50" value="" style="rounded=0;whiteSpace=wrap;html=1;fillColor=none;dashed=1;" vertex="1" parent="1">
          <mxGeometry x="-550" y="870" width="170" height="210" as="geometry" />
        </mxCell>
        <mxCell id="3rphy4vfXOON34eeTj1o-25" value="" style="rounded=0;whiteSpace=wrap;html=1;fillColor=none;dashed=1;" vertex="1" parent="1">
          <mxGeometry x="-350" y="630" width="500" height="450" as="geometry" />
        </mxCell>
        <mxCell id="3rphy4vfXOON34eeTj1o-23" value="" style="rounded=0;whiteSpace=wrap;html=1;fillColor=none;dashed=1;" vertex="1" parent="1">
          <mxGeometry x="180" y="330" width="500" height="210" as="geometry" />
        </mxCell>
        <mxCell id="3rphy4vfXOON34eeTj1o-6" style="edgeStyle=orthogonalEdgeStyle;rounded=0;orthogonalLoop=1;jettySize=auto;html=1;exitX=1;exitY=0.5;exitDx=0;exitDy=0;entryX=0;entryY=0.5;entryDx=0;entryDy=0;" edge="1" parent="1" source="3rphy4vfXOON34eeTj1o-3" target="3rphy4vfXOON34eeTj1o-4">
          <mxGeometry relative="1" as="geometry" />
        </mxCell>
        <mxCell id="3rphy4vfXOON34eeTj1o-59" style="edgeStyle=orthogonalEdgeStyle;rounded=0;orthogonalLoop=1;jettySize=auto;html=1;exitX=0.5;exitY=1;exitDx=0;exitDy=0;entryX=0.5;entryY=0;entryDx=0;entryDy=0;" edge="1" parent="1" source="3rphy4vfXOON34eeTj1o-3" target="3rphy4vfXOON34eeTj1o-53">
          <mxGeometry relative="1" as="geometry" />
        </mxCell>
        <mxCell id="3rphy4vfXOON34eeTj1o-3" value="Face detection model" style="rounded=0;whiteSpace=wrap;html=1;" vertex="1" parent="1">
          <mxGeometry x="200" y="660" width="120" height="60" as="geometry" />
        </mxCell>
        <mxCell id="3rphy4vfXOON34eeTj1o-7" style="edgeStyle=orthogonalEdgeStyle;rounded=0;orthogonalLoop=1;jettySize=auto;html=1;exitX=1;exitY=0.5;exitDx=0;exitDy=0;entryX=0;entryY=0.5;entryDx=0;entryDy=0;" edge="1" parent="1" source="3rphy4vfXOON34eeTj1o-4" target="3rphy4vfXOON34eeTj1o-5">
          <mxGeometry relative="1" as="geometry" />
        </mxCell>
        <mxCell id="3rphy4vfXOON34eeTj1o-4" value="Face cropper" style="rounded=0;whiteSpace=wrap;html=1;" vertex="1" parent="1">
          <mxGeometry x="340" y="660" width="120" height="60" as="geometry" />
        </mxCell>
        <mxCell id="3rphy4vfXOON34eeTj1o-9" style="edgeStyle=orthogonalEdgeStyle;rounded=0;orthogonalLoop=1;jettySize=auto;html=1;exitX=1;exitY=0.5;exitDx=0;exitDy=0;entryX=1;entryY=0.5;entryDx=0;entryDy=0;" edge="1" parent="1" source="3rphy4vfXOON34eeTj1o-5" target="3rphy4vfXOON34eeTj1o-8">
          <mxGeometry relative="1" as="geometry" />
        </mxCell>
        <mxCell id="3rphy4vfXOON34eeTj1o-11" style="edgeStyle=orthogonalEdgeStyle;rounded=0;orthogonalLoop=1;jettySize=auto;html=1;exitX=0;exitY=0.5;exitDx=0;exitDy=0;" edge="1" parent="1" source="3rphy4vfXOON34eeTj1o-8" target="3rphy4vfXOON34eeTj1o-10">
          <mxGeometry relative="1" as="geometry" />
        </mxCell>
        <mxCell id="3rphy4vfXOON34eeTj1o-8" value="data" style="rounded=0;whiteSpace=wrap;html=1;" vertex="1" parent="1">
          <mxGeometry x="480" y="1000" width="120" height="60" as="geometry" />
        </mxCell>
        <mxCell id="3rphy4vfXOON34eeTj1o-46" style="edgeStyle=orthogonalEdgeStyle;rounded=0;orthogonalLoop=1;jettySize=auto;html=1;exitX=0;exitY=0.5;exitDx=0;exitDy=0;entryX=1;entryY=0.5;entryDx=0;entryDy=0;" edge="1" parent="1" source="3rphy4vfXOON34eeTj1o-10" target="3rphy4vfXOON34eeTj1o-45">
          <mxGeometry relative="1" as="geometry" />
        </mxCell>
        <mxCell id="3rphy4vfXOON34eeTj1o-10" value="video classification" style="rounded=0;whiteSpace=wrap;html=1;" vertex="1" parent="1">
          <mxGeometry x="340" y="1000" width="120" height="60" as="geometry" />
        </mxCell>
        <mxCell id="3rphy4vfXOON34eeTj1o-14" value="prediction service" style="text;html=1;strokeColor=none;fillColor=none;align=center;verticalAlign=middle;whiteSpace=wrap;rounded=0;" vertex="1" parent="1">
          <mxGeometry x="414" y="600" width="60" height="30" as="geometry" />
        </mxCell>
        <mxCell id="3rphy4vfXOON34eeTj1o-17" value="pretrained face detection mtcnn model" style="rounded=0;whiteSpace=wrap;html=1;" vertex="1" parent="1">
          <mxGeometry x="200" y="450" width="120" height="60" as="geometry" />
        </mxCell>
        <mxCell id="3rphy4vfXOON34eeTj1o-18" style="edgeStyle=orthogonalEdgeStyle;rounded=0;orthogonalLoop=1;jettySize=auto;html=1;exitX=0.5;exitY=1;exitDx=0;exitDy=0;entryX=0.5;entryY=0;entryDx=0;entryDy=0;" edge="1" parent="1" source="3rphy4vfXOON34eeTj1o-17" target="3rphy4vfXOON34eeTj1o-3">
          <mxGeometry relative="1" as="geometry">
            <mxPoint x="310" y="580" as="targetPoint" />
          </mxGeometry>
        </mxCell>
        <mxCell id="3rphy4vfXOON34eeTj1o-36" style="edgeStyle=orthogonalEdgeStyle;rounded=0;orthogonalLoop=1;jettySize=auto;html=1;exitX=1;exitY=0.5;exitDx=0;exitDy=0;" edge="1" parent="1" source="3rphy4vfXOON34eeTj1o-19">
          <mxGeometry relative="1" as="geometry">
            <mxPoint x="-20" y="690" as="targetPoint" />
          </mxGeometry>
        </mxCell>
        <mxCell id="3rphy4vfXOON34eeTj1o-19" value="video" style="rounded=0;whiteSpace=wrap;html=1;" vertex="1" parent="1">
          <mxGeometry x="-520" y="660" width="120" height="60" as="geometry" />
        </mxCell>
        <mxCell id="3rphy4vfXOON34eeTj1o-22" style="edgeStyle=orthogonalEdgeStyle;rounded=0;orthogonalLoop=1;jettySize=auto;html=1;exitX=0.5;exitY=1;exitDx=0;exitDy=0;entryX=0.5;entryY=0;entryDx=0;entryDy=0;" edge="1" parent="1" source="3rphy4vfXOON34eeTj1o-21" target="3rphy4vfXOON34eeTj1o-5">
          <mxGeometry relative="1" as="geometry" />
        </mxCell>
        <mxCell id="3rphy4vfXOON34eeTj1o-21" value="deepfake classification model" style="rounded=0;whiteSpace=wrap;html=1;" vertex="1" parent="1">
          <mxGeometry x="480" y="450" width="120" height="60" as="geometry" />
        </mxCell>
        <mxCell id="3rphy4vfXOON34eeTj1o-24" value="model storage" style="text;html=1;strokeColor=none;fillColor=none;align=center;verticalAlign=middle;whiteSpace=wrap;rounded=0;" vertex="1" parent="1">
          <mxGeometry x="400" y="300" width="60" height="30" as="geometry" />
        </mxCell>
        <mxCell id="3rphy4vfXOON34eeTj1o-26" value="web application" style="text;html=1;strokeColor=none;fillColor=none;align=center;verticalAlign=middle;whiteSpace=wrap;rounded=0;" vertex="1" parent="1">
          <mxGeometry x="-130" y="600" width="60" height="30" as="geometry" />
        </mxCell>
        <mxCell id="3rphy4vfXOON34eeTj1o-29" style="edgeStyle=orthogonalEdgeStyle;rounded=0;orthogonalLoop=1;jettySize=auto;html=1;exitX=1;exitY=0.5;exitDx=0;exitDy=0;entryX=0;entryY=0.5;entryDx=0;entryDy=0;" edge="1" parent="1" source="3rphy4vfXOON34eeTj1o-27" target="3rphy4vfXOON34eeTj1o-28">
          <mxGeometry relative="1" as="geometry">
            <mxPoint x="-370" y="780" as="targetPoint" />
          </mxGeometry>
        </mxCell>
        <mxCell id="3rphy4vfXOON34eeTj1o-27" value="&amp;nbsp;video link" style="rounded=0;whiteSpace=wrap;html=1;" vertex="1" parent="1">
          <mxGeometry x="-520" y="750" width="120" height="60" as="geometry" />
        </mxCell>
        <mxCell id="3rphy4vfXOON34eeTj1o-35" style="edgeStyle=orthogonalEdgeStyle;rounded=0;orthogonalLoop=1;jettySize=auto;html=1;exitX=1;exitY=0.5;exitDx=0;exitDy=0;entryX=0;entryY=0.5;entryDx=0;entryDy=0;" edge="1" parent="1" source="3rphy4vfXOON34eeTj1o-28" target="3rphy4vfXOON34eeTj1o-33">
          <mxGeometry relative="1" as="geometry" />
        </mxCell>
        <mxCell id="3rphy4vfXOON34eeTj1o-28" value="video downloader" style="rounded=0;whiteSpace=wrap;html=1;" vertex="1" parent="1">
          <mxGeometry x="-310" y="750" width="120" height="60" as="geometry" />
        </mxCell>
        <mxCell id="3rphy4vfXOON34eeTj1o-34" style="edgeStyle=orthogonalEdgeStyle;rounded=0;orthogonalLoop=1;jettySize=auto;html=1;exitX=1;exitY=0.5;exitDx=0;exitDy=0;entryX=0;entryY=0.5;entryDx=0;entryDy=0;" edge="1" parent="1" source="3rphy4vfXOON34eeTj1o-33" target="3rphy4vfXOON34eeTj1o-3">
          <mxGeometry relative="1" as="geometry" />
        </mxCell>
        <mxCell id="3rphy4vfXOON34eeTj1o-33" value="video sender" style="rounded=0;whiteSpace=wrap;html=1;" vertex="1" parent="1">
          <mxGeometry x="-20" y="660" width="120" height="60" as="geometry" />
        </mxCell>
        <mxCell id="3rphy4vfXOON34eeTj1o-37" value="" style="rounded=0;whiteSpace=wrap;html=1;fillColor=none;dashed=1;" vertex="1" parent="1">
          <mxGeometry x="-550" y="630" width="170" height="210" as="geometry" />
        </mxCell>
        <mxCell id="3rphy4vfXOON34eeTj1o-38" value="user input" style="text;html=1;strokeColor=none;fillColor=none;align=center;verticalAlign=middle;whiteSpace=wrap;rounded=0;" vertex="1" parent="1">
          <mxGeometry x="-495" y="600" width="60" height="30" as="geometry" />
        </mxCell>
        <mxCell id="3rphy4vfXOON34eeTj1o-39" value="" style="rounded=0;whiteSpace=wrap;html=1;fillColor=none;dashed=1;" vertex="1" parent="1">
          <mxGeometry x="180" y="-30" width="550" height="290" as="geometry" />
        </mxCell>
        <mxCell id="3rphy4vfXOON34eeTj1o-40" value="continious training" style="text;html=1;strokeColor=none;fillColor=none;align=center;verticalAlign=middle;whiteSpace=wrap;rounded=0;" vertex="1" parent="1">
          <mxGeometry x="400" y="-60" width="60" height="30" as="geometry" />
        </mxCell>
        <mxCell id="3rphy4vfXOON34eeTj1o-42" value="data storage" style="text;html=1;strokeColor=none;fillColor=none;align=center;verticalAlign=middle;whiteSpace=wrap;rounded=0;" vertex="1" parent="1">
          <mxGeometry x="400" y="-350" width="60" height="30" as="geometry" />
        </mxCell>
        <mxCell id="3rphy4vfXOON34eeTj1o-71" style="edgeStyle=orthogonalEdgeStyle;rounded=0;orthogonalLoop=1;jettySize=auto;html=1;exitX=0.5;exitY=1;exitDx=0;exitDy=0;entryX=0.5;entryY=0;entryDx=0;entryDy=0;" edge="1" parent="1" source="3rphy4vfXOON34eeTj1o-43" target="3rphy4vfXOON34eeTj1o-70">
          <mxGeometry relative="1" as="geometry" />
        </mxCell>
        <mxCell id="3rphy4vfXOON34eeTj1o-43" value="deepfake datasets" style="rounded=0;whiteSpace=wrap;html=1;" vertex="1" parent="1">
          <mxGeometry x="200" y="-240" width="120" height="60" as="geometry" />
        </mxCell>
        <mxCell id="3rphy4vfXOON34eeTj1o-52" style="edgeStyle=orthogonalEdgeStyle;rounded=0;orthogonalLoop=1;jettySize=auto;html=1;exitX=0;exitY=0.5;exitDx=0;exitDy=0;entryX=1;entryY=0.5;entryDx=0;entryDy=0;" edge="1" parent="1" source="3rphy4vfXOON34eeTj1o-44" target="3rphy4vfXOON34eeTj1o-49">
          <mxGeometry relative="1" as="geometry" />
        </mxCell>
        <mxCell id="3rphy4vfXOON34eeTj1o-44" value="prediction receiver" style="rounded=0;whiteSpace=wrap;html=1;" vertex="1" parent="1">
          <mxGeometry x="-20" y="1000" width="120" height="60" as="geometry" />
        </mxCell>
        <mxCell id="3rphy4vfXOON34eeTj1o-47" style="edgeStyle=orthogonalEdgeStyle;rounded=0;orthogonalLoop=1;jettySize=auto;html=1;exitX=0;exitY=0.5;exitDx=0;exitDy=0;entryX=1;entryY=0.5;entryDx=0;entryDy=0;" edge="1" parent="1" source="3rphy4vfXOON34eeTj1o-45" target="3rphy4vfXOON34eeTj1o-44">
          <mxGeometry relative="1" as="geometry" />
        </mxCell>
        <mxCell id="3rphy4vfXOON34eeTj1o-45" value="prediction sender" style="rounded=0;whiteSpace=wrap;html=1;" vertex="1" parent="1">
          <mxGeometry x="200" y="1000" width="120" height="60" as="geometry" />
        </mxCell>
        <mxCell id="3rphy4vfXOON34eeTj1o-49" value="prediction result" style="rounded=0;whiteSpace=wrap;html=1;" vertex="1" parent="1">
          <mxGeometry x="-525" y="1000" width="120" height="60" as="geometry" />
        </mxCell>
        <mxCell id="3rphy4vfXOON34eeTj1o-51" value="user output" style="text;html=1;strokeColor=none;fillColor=none;align=center;verticalAlign=middle;whiteSpace=wrap;rounded=0;" vertex="1" parent="1">
          <mxGeometry x="-490" y="840" width="60" height="30" as="geometry" />
        </mxCell>
        <mxCell id="3rphy4vfXOON34eeTj1o-61" style="edgeStyle=orthogonalEdgeStyle;rounded=0;orthogonalLoop=1;jettySize=auto;html=1;exitX=0;exitY=0.5;exitDx=0;exitDy=0;entryX=1;entryY=0.5;entryDx=0;entryDy=0;" edge="1" parent="1" source="3rphy4vfXOON34eeTj1o-53" target="3rphy4vfXOON34eeTj1o-60">
          <mxGeometry relative="1" as="geometry" />
        </mxCell>
        <mxCell id="3rphy4vfXOON34eeTj1o-53" value="video render (face boxes + deepfake prob)" style="rounded=0;whiteSpace=wrap;html=1;" vertex="1" parent="1">
          <mxGeometry x="200" y="900" width="120" height="60" as="geometry" />
        </mxCell>
        <mxCell id="3rphy4vfXOON34eeTj1o-58" style="edgeStyle=orthogonalEdgeStyle;rounded=0;orthogonalLoop=1;jettySize=auto;html=1;exitX=0.5;exitY=1;exitDx=0;exitDy=0;entryX=1;entryY=0.5;entryDx=0;entryDy=0;" edge="1" parent="1" source="3rphy4vfXOON34eeTj1o-5" target="3rphy4vfXOON34eeTj1o-53">
          <mxGeometry relative="1" as="geometry" />
        </mxCell>
        <mxCell id="3rphy4vfXOON34eeTj1o-5" value="Deepfake face classification" style="rounded=0;whiteSpace=wrap;html=1;" vertex="1" parent="1">
          <mxGeometry x="480" y="660" width="120" height="60" as="geometry" />
        </mxCell>
        <mxCell id="3rphy4vfXOON34eeTj1o-63" style="edgeStyle=orthogonalEdgeStyle;rounded=0;orthogonalLoop=1;jettySize=auto;html=1;exitX=0;exitY=0.5;exitDx=0;exitDy=0;entryX=1;entryY=0.5;entryDx=0;entryDy=0;" edge="1" parent="1" source="3rphy4vfXOON34eeTj1o-60" target="3rphy4vfXOON34eeTj1o-62">
          <mxGeometry relative="1" as="geometry" />
        </mxCell>
        <mxCell id="3rphy4vfXOON34eeTj1o-60" value="renedered video receiver" style="rounded=0;whiteSpace=wrap;html=1;" vertex="1" parent="1">
          <mxGeometry x="-20" y="900" width="120" height="60" as="geometry" />
        </mxCell>
        <mxCell id="3rphy4vfXOON34eeTj1o-62" value="rendered video" style="rounded=0;whiteSpace=wrap;html=1;" vertex="1" parent="1">
          <mxGeometry x="-525" y="900" width="120" height="60" as="geometry" />
        </mxCell>
        <mxCell id="3rphy4vfXOON34eeTj1o-80" style="edgeStyle=orthogonalEdgeStyle;rounded=0;orthogonalLoop=1;jettySize=auto;html=1;exitX=1;exitY=0.5;exitDx=0;exitDy=0;entryX=1;entryY=0.5;entryDx=0;entryDy=0;" edge="1" parent="1" source="3rphy4vfXOON34eeTj1o-65" target="3rphy4vfXOON34eeTj1o-78">
          <mxGeometry relative="1" as="geometry" />
        </mxCell>
        <mxCell id="3rphy4vfXOON34eeTj1o-65" value="" style="rounded=0;whiteSpace=wrap;html=1;fillColor=none;dashed=1;" vertex="1" parent="1">
          <mxGeometry x="790" y="630" width="500" height="450" as="geometry" />
        </mxCell>
        <mxCell id="3rphy4vfXOON34eeTj1o-66" value="performance monitoring" style="text;html=1;strokeColor=none;fillColor=none;align=center;verticalAlign=middle;whiteSpace=wrap;rounded=0;" vertex="1" parent="1">
          <mxGeometry x="1010" y="600" width="60" height="30" as="geometry" />
        </mxCell>
        <mxCell id="3rphy4vfXOON34eeTj1o-75" style="edgeStyle=orthogonalEdgeStyle;rounded=0;orthogonalLoop=1;jettySize=auto;html=1;exitX=1;exitY=0.5;exitDx=0;exitDy=0;entryX=0;entryY=0.5;entryDx=0;entryDy=0;" edge="1" parent="1" source="3rphy4vfXOON34eeTj1o-70" target="3rphy4vfXOON34eeTj1o-72">
          <mxGeometry relative="1" as="geometry" />
        </mxCell>
        <mxCell id="3rphy4vfXOON34eeTj1o-70" value="data preparation" style="rounded=0;whiteSpace=wrap;html=1;" vertex="1" parent="1">
          <mxGeometry x="200" width="120" height="60" as="geometry" />
        </mxCell>
        <mxCell id="3rphy4vfXOON34eeTj1o-77" style="edgeStyle=orthogonalEdgeStyle;rounded=0;orthogonalLoop=1;jettySize=auto;html=1;exitX=1;exitY=0.5;exitDx=0;exitDy=0;entryX=0.5;entryY=0;entryDx=0;entryDy=0;" edge="1" parent="1" source="3rphy4vfXOON34eeTj1o-72" target="3rphy4vfXOON34eeTj1o-73">
          <mxGeometry relative="1" as="geometry" />
        </mxCell>
        <mxCell id="3rphy4vfXOON34eeTj1o-72" value="model training" style="rounded=0;whiteSpace=wrap;html=1;" vertex="1" parent="1">
          <mxGeometry x="360" width="120" height="60" as="geometry" />
        </mxCell>
        <mxCell id="3rphy4vfXOON34eeTj1o-76" style="edgeStyle=orthogonalEdgeStyle;rounded=0;orthogonalLoop=1;jettySize=auto;html=1;exitX=0.5;exitY=1;exitDx=0;exitDy=0;entryX=0.5;entryY=0;entryDx=0;entryDy=0;" edge="1" parent="1" source="3rphy4vfXOON34eeTj1o-73" target="3rphy4vfXOON34eeTj1o-21">
          <mxGeometry relative="1" as="geometry" />
        </mxCell>
        <mxCell id="3rphy4vfXOON34eeTj1o-73" value="model evaluation and validation" style="rounded=0;whiteSpace=wrap;html=1;" vertex="1" parent="1">
          <mxGeometry x="480" y="85" width="120" height="60" as="geometry" />
        </mxCell>
        <mxCell id="3rphy4vfXOON34eeTj1o-79" style="edgeStyle=orthogonalEdgeStyle;rounded=0;orthogonalLoop=1;jettySize=auto;html=1;exitX=0.5;exitY=1;exitDx=0;exitDy=0;entryX=0.5;entryY=0;entryDx=0;entryDy=0;" edge="1" parent="1" source="3rphy4vfXOON34eeTj1o-78" target="3rphy4vfXOON34eeTj1o-70">
          <mxGeometry relative="1" as="geometry" />
        </mxCell>
        <mxCell id="3rphy4vfXOON34eeTj1o-78" value="new data" style="rounded=0;whiteSpace=wrap;html=1;" vertex="1" parent="1">
          <mxGeometry x="380" y="-240" width="120" height="60" as="geometry" />
        </mxCell>
      </root>
    </mxGraphModel>
  </diagram>
</mxfile>
